<?xml version="1.0" encoding="UTF-8"?>
<svg xmlns="http://www.w3.org/2000/svg" xmlns:xlink="http://www.w3.org/1999/xlink" width="90px" height="90px" viewBox="0 0 90 90" version="1.1">
<g id="surface1">
<path style=" stroke:none;fill-rule:nonzero;fill:rgb(0%,0%,0%);fill-opacity:1;" d="M 0.175781 79.359375 C 0.703125 76.515625 1.421875 73.8125 2.5 71.207031 C 4.234375 66.996094 6.449219 63.039062 8.824219 59.167969 C 9.34375 58.324219 10.144531 58.078125 10.828125 58.488281 C 11.539062 58.917969 11.726562 59.761719 11.199219 60.652344 C 9.691406 63.199219 8.148438 65.722656 6.875 68.394531 C 5.234375 71.832031 3.695312 75.304688 3.125 79.117188 C 2.898438 80.628906 2.769531 82.125 3.1875 83.636719 C 3.761719 85.703125 5.171875 86.949219 7.300781 87.320312 C 9.625 87.726562 11.847656 87.257812 14.046875 86.632812 C 19.96875 84.949219 25.265625 81.953125 30.40625 78.664062 C 39.726562 72.710938 48.113281 65.601562 55.96875 57.847656 C 56.242188 57.582031 56.503906 57.304688 56.789062 57.054688 C 57.535156 56.398438 58.324219 56.375 58.898438 56.976562 C 59.480469 57.589844 59.445312 58.363281 58.722656 59.066406 C 56.640625 61.082031 54.570312 63.113281 52.433594 65.070312 C 47.707031 69.410156 42.773438 73.507812 37.550781 77.238281 C 31.390625 81.636719 24.996094 85.632812 17.878906 88.335938 C 15.710938 89.160156 13.476562 89.730469 11.132812 90.144531 C 9.722656 90.175781 8.371094 90.175781 6.886719 90.136719 C 6.53125 90.03125 6.316406 89.9375 6.089844 89.890625 C 4.234375 89.519531 2.773438 88.546875 1.660156 87.019531 C 0.847656 85.910156 0.550781 84.601562 0.175781 83.320312 C 0.175781 82.027344 0.175781 80.734375 0.175781 79.359375 Z M 0.175781 79.359375 "/>
<path style=" stroke:none;fill-rule:nonzero;fill:rgb(0%,0%,0%);fill-opacity:1;" d="M 90.175781 10.640625 C 89.621094 14.761719 88.230469 18.535156 86.496094 22.199219 C 86.359375 22.488281 86.242188 22.796875 86.054688 23.054688 C 85.660156 23.605469 85.125 23.867188 84.453125 23.613281 C 83.789062 23.367188 83.53125 22.847656 83.574219 22.15625 C 83.605469 21.644531 83.867188 21.210938 84.078125 20.761719 C 85.480469 17.726562 86.675781 14.621094 87.214844 11.296875 C 87.441406 9.878906 87.527344 8.453125 87.253906 7.03125 C 86.605469 3.683594 83.652344 2.652344 80.585938 2.933594 C 75.304688 3.421875 70.609375 5.613281 66.039062 8.074219 C 57.984375 12.414062 50.71875 17.882812 43.785156 23.828125 C 38.886719 28.023438 34.269531 32.511719 29.796875 37.152344 C 29.65625 37.300781 29.515625 37.449219 29.367188 37.589844 C 28.613281 38.296875 27.867188 38.351562 27.273438 37.75 C 26.679688 37.144531 26.679688 36.355469 27.382812 35.640625 C 29.761719 33.214844 32.125 30.773438 34.574219 28.417969 C 42.488281 20.804688 50.941406 13.859375 60.324219 8.105469 C 65.027344 5.21875 69.902344 2.671875 75.226562 1.109375 C 76.511719 0.734375 77.847656 0.523438 79.21875 0.207031 C 80.511719 0.175781 81.746094 0.175781 83.121094 0.203125 C 86.375 0.730469 88.671875 2.261719 89.71875 5.355469 C 89.902344 5.902344 90.023438 6.472656 90.175781 7.03125 C 90.175781 8.207031 90.175781 9.382812 90.175781 10.640625 Z M 90.175781 10.640625 "/>
<path style=" stroke:none;fill-rule:nonzero;fill:rgb(0%,0%,0%);fill-opacity:1;" d="M 90.175781 52.65625 C 89.503906 54.449219 88.171875 55.066406 86.417969 55.015625 C 84.664062 54.960938 82.90625 54.941406 81.152344 54.898438 C 80.121094 54.871094 79.515625 54.320312 79.53125 53.449219 C 79.546875 52.636719 80.136719 52.15625 81.171875 52.152344 C 82.871094 52.144531 84.566406 52.15625 86.265625 52.152344 C 86.605469 52.148438 86.96875 52.226562 87.269531 51.976562 C 87.320312 51.457031 86.96875 51.140625 86.722656 50.800781 C 85.019531 48.492188 83.328125 46.171875 81.570312 43.90625 C 80.179688 42.109375 79.835938 40.234375 80.632812 38.074219 C 81.65625 35.304688 82.554688 32.484375 83.503906 29.6875 C 83.613281 29.363281 83.761719 29.042969 83.71875 28.703125 C 83.230469 28.367188 82.820312 28.648438 82.429688 28.78125 C 79.628906 29.71875 76.828125 30.664062 74.042969 31.648438 C 72.035156 32.355469 70.234375 32.136719 68.519531 30.804688 C 66.300781 29.078125 64.023438 27.433594 61.757812 25.769531 C 61.324219 25.449219 60.933594 25.023438 60.359375 24.953125 C 60.023438 25.261719 60.128906 25.632812 60.128906 25.96875 C 60.128906 27.402344 60.164062 28.839844 60.160156 30.273438 C 60.15625 31.355469 59.675781 31.984375 58.855469 32.042969 C 57.988281 32.101562 57.351562 31.507812 57.308594 30.40625 C 57.242188 28.589844 57.179688 26.769531 57.285156 24.960938 C 57.4375 22.398438 60.128906 21.160156 62.265625 22.667969 C 64.726562 24.40625 67.109375 26.257812 69.527344 28.058594 C 69.808594 28.269531 70.105469 28.460938 70.378906 28.679688 C 71.15625 29.296875 71.964844 29.414062 72.925781 29.078125 C 75.988281 28 79.066406 26.972656 82.144531 25.941406 C 84.140625 25.277344 85.882812 26.09375 86.441406 27.929688 C 86.671875 28.695312 86.527344 29.4375 86.277344 30.167969 C 85.277344 33.128906 84.292969 36.101562 83.261719 39.054688 C 82.855469 40.207031 82.976562 41.171875 83.746094 42.160156 C 85.578125 44.519531 87.339844 46.929688 89.117188 49.332031 C 89.480469 49.824219 89.777344 50.363281 90.140625 50.929688 C 90.175781 51.507812 90.175781 52.042969 90.175781 52.65625 Z M 90.175781 52.65625 "/>
<path style=" stroke:none;fill-rule:nonzero;fill:rgb(0%,0%,0%);fill-opacity:1;" d="M 28.414062 58.085938 C 27.394531 58.082031 26.457031 58.101562 25.519531 58.0625 C 24.929688 58.039062 24.535156 58.257812 24.203125 58.738281 C 23.171875 60.230469 22.105469 61.699219 21.066406 63.1875 C 20.480469 64.027344 19.6875 64.492188 18.675781 64.355469 C 17.632812 64.214844 16.949219 63.554688 16.636719 62.535156 C 16.109375 60.832031 15.558594 59.132812 15.066406 57.421875 C 14.875 56.757812 14.515625 56.390625 13.851562 56.199219 C 12.195312 55.71875 10.554688 55.191406 8.90625 54.683594 C 7.851562 54.359375 7.0625 53.75 6.90625 52.59375 C 6.753906 51.488281 7.300781 50.699219 8.179688 50.085938 C 9.621094 49.078125 11.039062 48.042969 12.488281 47.050781 C 12.976562 46.714844 13.15625 46.308594 13.148438 45.722656 C 13.117188 43.910156 13.140625 42.09375 13.121094 40.28125 C 13.105469 39.21875 13.492188 38.390625 14.460938 37.90625 C 15.433594 37.421875 16.324219 37.648438 17.164062 38.277344 C 18.566406 39.332031 19.996094 40.355469 21.382812 41.429688 C 21.925781 41.851562 22.414062 41.941406 23.070312 41.699219 C 24.746094 41.082031 26.433594 40.507812 28.136719 39.972656 C 29.808594 39.453125 31.238281 40.359375 31.429688 41.988281 C 31.488281 42.472656 31.339844 42.914062 31.191406 43.355469 C 30.652344 44.964844 30.132812 46.578125 29.554688 48.171875 C 29.304688 48.863281 29.441406 49.398438 29.871094 49.957031 C 30.945312 51.347656 32.007812 52.746094 33.027344 54.175781 C 33.933594 55.445312 33.738281 56.84375 32.613281 57.675781 C 32.039062 58.105469 31.359375 58.148438 30.6875 58.164062 C 29.960938 58.179688 29.226562 58.117188 28.414062 58.085938 M 11.511719 52.550781 C 12.628906 52.898438 13.742188 53.246094 14.863281 53.585938 C 16.320312 54.03125 17.265625 54.945312 17.664062 56.449219 C 17.960938 57.578125 18.34375 58.6875 18.714844 59.796875 C 18.828125 60.136719 18.84375 60.546875 19.242188 60.816406 C 19.484375 60.503906 19.722656 60.210938 19.941406 59.90625 C 20.621094 58.953125 21.308594 58.003906 21.972656 57.042969 C 22.804688 55.84375 23.898438 55.230469 25.394531 55.300781 C 26.679688 55.359375 27.96875 55.320312 29.257812 55.308594 C 29.535156 55.308594 29.847656 55.414062 30.171875 55.050781 C 29.511719 54.15625 28.835938 53.25 28.167969 52.335938 C 27.617188 51.582031 27.003906 50.867188 26.6875 49.964844 C 26.253906 48.714844 26.835938 47.613281 27.1875 46.480469 C 27.542969 45.328125 28.046875 44.21875 28.28125 42.882812 C 26.570312 43.449219 24.988281 43.960938 23.414062 44.496094 C 22.273438 44.882812 21.222656 44.722656 20.246094 44.042969 C 19.765625 43.707031 19.304688 43.347656 18.824219 43.011719 C 17.875 42.355469 17.015625 41.5625 15.933594 40.96875 C 15.933594 42.34375 15.835938 43.632812 15.957031 44.902344 C 16.152344 46.972656 15.546875 48.542969 13.703125 49.644531 C 12.539062 50.34375 11.480469 51.21875 10.355469 52.027344 C 10.691406 52.375 11.070312 52.367188 11.511719 52.550781 Z M 11.511719 52.550781 "/>
<path style=" stroke:none;fill-rule:nonzero;fill:rgb(0%,0%,0%);fill-opacity:1;" d="M 65.757812 12.308594 C 68.382812 10.976562 71.042969 9.910156 73.90625 9.5 C 75.300781 9.300781 76.722656 9.3125 78.042969 9.933594 C 79.972656 10.839844 80.800781 12.46875 80.914062 14.511719 C 81.074219 17.433594 80.042969 20.082031 78.941406 22.703125 C 78.648438 23.402344 78.289062 24.078125 77.941406 24.753906 C 77.445312 25.71875 76.730469 26.042969 75.976562 25.667969 C 75.210938 25.289062 75.007812 24.519531 75.453125 23.5625 C 76.429688 21.464844 77.414062 19.371094 77.894531 17.09375 C 78.042969 16.378906 78.175781 15.660156 78.164062 14.921875 C 78.128906 13.164062 77.203125 12.195312 75.425781 12.207031 C 72.972656 12.222656 70.726562 13.085938 68.542969 14.097656 C 61.609375 17.3125 55.523438 21.816406 49.652344 26.636719 C 45.621094 29.941406 41.777344 33.457031 38.078125 37.132812 C 37.933594 37.277344 37.792969 37.429688 37.632812 37.558594 C 36.917969 38.140625 36.234375 38.140625 35.667969 37.574219 C 35.136719 37.042969 35.121094 36.230469 35.691406 35.59375 C 36.175781 35.050781 36.714844 34.550781 37.238281 34.039062 C 43.777344 27.679688 50.675781 21.753906 58.277344 16.6875 C 60.664062 15.09375 63.113281 13.59375 65.757812 12.308594 Z M 65.757812 12.308594 "/>
<path style=" stroke:none;fill-rule:nonzero;fill:rgb(0%,0%,0%);fill-opacity:1;" d="M 23.539062 78.578125 C 21.289062 79.597656 19.058594 80.507812 16.660156 80.820312 C 14.292969 81.125 11.996094 81.035156 10.40625 78.839844 C 9.316406 77.335938 9.261719 75.59375 9.496094 73.867188 C 9.882812 71.054688 10.949219 68.453125 12.226562 65.9375 C 12.667969 65.0625 13.414062 64.757812 14.160156 65.109375 C 14.882812 65.449219 15.140625 66.246094 14.738281 67.132812 C 13.84375 69.109375 12.929688 71.074219 12.480469 73.210938 C 12.367188 73.75 12.257812 74.296875 12.207031 74.847656 C 11.972656 77.253906 13.457031 78.488281 15.929688 78.101562 C 19.445312 77.558594 22.550781 76.011719 25.597656 74.3125 C 32.542969 70.441406 38.71875 65.515625 44.6875 60.316406 C 47.253906 58.082031 49.675781 55.703125 52.128906 53.355469 C 52.382812 53.109375 52.636719 52.859375 52.917969 52.652344 C 53.519531 52.207031 54.136719 52.242188 54.671875 52.75 C 55.214844 53.265625 55.210938 53.898438 54.859375 54.515625 C 54.71875 54.765625 54.496094 54.972656 54.285156 55.175781 C 48.226562 61.097656 41.914062 66.722656 35.007812 71.652344 C 31.382812 74.238281 27.621094 76.609375 23.539062 78.578125 Z M 23.539062 78.578125 "/>
<path style=" stroke:none;fill-rule:nonzero;fill:rgb(0%,0%,0%);fill-opacity:1;" d="M 63.695312 55.164062 C 64.40625 57.464844 65.101562 59.699219 65.796875 61.933594 C 65.882812 62.210938 65.917969 62.5625 66.238281 62.644531 C 66.644531 62.742188 66.769531 62.347656 66.945312 62.097656 C 68.777344 59.523438 70.601562 56.9375 72.433594 54.359375 C 73.359375 53.054688 74.554688 52.203125 76.214844 52.113281 C 77.203125 52.058594 77.808594 52.429688 77.917969 53.214844 C 78.039062 54.066406 77.652344 54.679688 76.6875 54.804688 C 75.605469 54.945312 74.980469 55.554688 74.40625 56.386719 C 72.660156 58.917969 70.863281 61.414062 69.101562 63.9375 C 68.300781 65.082031 67.265625 65.785156 65.84375 65.570312 C 64.375 65.351562 63.597656 64.347656 63.183594 62.972656 C 62.265625 59.945312 61.289062 56.941406 60.386719 53.914062 C 60.0625 52.816406 59.410156 52.203125 58.320312 51.878906 C 55.238281 50.960938 52.167969 49.996094 49.105469 49.015625 C 47.097656 48.371094 46.171875 46.527344 46.90625 44.75 C 47.160156 44.132812 47.59375 43.671875 48.132812 43.292969 C 50.785156 41.414062 53.425781 39.515625 56.089844 37.65625 C 56.863281 37.117188 57.347656 36.480469 57.441406 35.519531 C 57.519531 34.730469 58.234375 34.179688 58.960938 34.238281 C 59.625 34.292969 60.160156 34.925781 60.167969 35.730469 C 60.175781 37.53125 59.273438 38.835938 57.859375 39.839844 C 55.304688 41.652344 52.738281 43.449219 50.1875 45.269531 C 49.917969 45.457031 49.472656 45.585938 49.550781 46.019531 C 49.625 46.402344 50.058594 46.371094 50.347656 46.460938 C 53.332031 47.402344 56.320312 48.328125 59.3125 49.25 C 61.191406 49.824219 62.441406 51.011719 62.992188 52.921875 C 63.199219 53.652344 63.449219 54.371094 63.695312 55.164062 Z M 63.695312 55.164062 "/>
<path style=" stroke:none;fill-rule:nonzero;fill:rgb(0%,0%,0%);fill-opacity:1;" d="M 19.683594 27.886719 C 18.53125 29.089844 17.710938 28.175781 16.863281 27.476562 C 16.03125 28.105469 15.269531 29.039062 14.183594 28.058594 C 13.570312 27.507812 13.734375 26.816406 14.742188 25.382812 C 14.664062 25.082031 14.386719 24.933594 14.207031 24.710938 C 13.664062 24.046875 13.640625 23.242188 14.15625 22.726562 C 14.734375 22.15625 15.492188 22.078125 16.113281 22.703125 C 16.691406 23.289062 17.058594 23.214844 17.621094 22.695312 C 18.273438 22.089844 19.023438 22.175781 19.570312 22.765625 C 20.0625 23.292969 20.050781 24.015625 19.53125 24.675781 C 19.355469 24.902344 19.15625 25.117188 18.9375 25.371094 C 19.515625 26.101562 20.34375 26.753906 19.683594 27.886719 Z M 19.683594 27.886719 "/>
<path style=" stroke:none;fill-rule:nonzero;fill:rgb(0%,0%,0%);fill-opacity:1;" d="M 84.683594 65.078125 C 84.59375 65.242188 84.554688 65.363281 84.472656 65.4375 C 83.878906 65.984375 83.667969 66.457031 84.398438 67.136719 C 84.984375 67.679688 84.878906 68.519531 84.363281 69.027344 C 83.851562 69.527344 83.050781 69.589844 82.460938 69.03125 C 81.894531 68.496094 81.507812 68.355469 80.90625 69 C 80.34375 69.601562 79.554688 69.539062 79.03125 69.015625 C 78.523438 68.503906 78.4375 67.667969 79 67.117188 C 79.59375 66.535156 79.585938 66.152344 79.007812 65.5625 C 78.417969 64.953125 78.511719 64.121094 79.074219 63.605469 C 79.617188 63.105469 80.304688 63.125 80.984375 63.65625 C 81.210938 63.832031 81.359375 64.105469 81.714844 64.199219 C 82.429688 63.75 83.050781 62.769531 84.128906 63.496094 C 84.664062 63.859375 84.886719 64.367188 84.683594 65.078125 Z M 84.683594 65.078125 "/>
<path style=" stroke:none;fill-rule:nonzero;fill:rgb(0%,0%,0%);fill-opacity:1;" d="M 55.585938 76.792969 C 55.835938 76.371094 55.46875 76.238281 55.296875 76.039062 C 54.660156 75.289062 54.578125 74.457031 55.109375 73.914062 C 55.707031 73.300781 56.460938 73.351562 57.296875 74.058594 C 57.449219 74.1875 57.609375 74.3125 57.800781 74.472656 C 58.628906 73.824219 59.492188 72.867188 60.511719 73.976562 C 61.441406 74.984375 60.570312 75.789062 59.871094 76.542969 C 60.539062 77.367188 61.445312 78.132812 60.472656 79.226562 C 59.875 79.898438 59.378906 79.78125 57.820312 78.710938 C 57.507812 78.761719 57.359375 79.042969 57.136719 79.222656 C 56.410156 79.792969 55.71875 79.808594 55.160156 79.257812 C 54.589844 78.703125 54.597656 77.917969 55.183594 77.210938 C 55.296875 77.078125 55.425781 76.957031 55.585938 76.792969 Z M 55.585938 76.792969 "/>
<path style=" stroke:none;fill-rule:nonzero;fill:rgb(0%,0%,0%);fill-opacity:1;" d="M 48.375 78.714844 C 48.726562 79.015625 48.90625 79.332031 48.925781 79.734375 C 48.957031 80.40625 48.753906 80.949219 48.105469 81.234375 C 47.503906 81.496094 46.953125 81.371094 46.535156 80.871094 C 46.101562 80.351562 46.042969 79.75 46.363281 79.15625 C 46.699219 78.542969 47.246094 78.34375 47.917969 78.507812 C 48.058594 78.542969 48.183594 78.617188 48.375 78.714844 Z M 48.375 78.714844 "/>
<path style=" stroke:none;fill-rule:nonzero;fill:rgb(0%,0%,0%);fill-opacity:1;" d="M 70.988281 68.300781 C 71.945312 68.140625 72.621094 68.527344 72.800781 69.28125 C 72.976562 70.007812 72.605469 70.785156 71.976562 71.019531 C 71.300781 71.269531 70.589844 71.007812 70.25 70.382812 C 69.839844 69.636719 70.09375 68.871094 70.988281 68.300781 Z M 70.988281 68.300781 "/>
<path style=" stroke:none;fill-rule:nonzero;fill:rgb(0%,0%,0%);fill-opacity:1;" d="M 43.820312 15.421875 C 43.628906 16.292969 43.121094 16.730469 42.3125 16.664062 C 41.640625 16.605469 41.191406 16.191406 41.085938 15.488281 C 40.957031 14.613281 41.449219 13.925781 42.25 13.835938 C 43.226562 13.726562 43.730469 14.210938 43.820312 15.421875 Z M 43.820312 15.421875 "/>
<path style=" stroke:none;fill-rule:nonzero;fill:rgb(0%,0%,0%);fill-opacity:1;" d="M 79.121094 77.347656 C 79.503906 76.621094 80.082031 76.675781 80.644531 77.042969 C 81.269531 77.453125 81.546875 78.0625 81.179688 78.78125 C 80.867188 79.386719 80.386719 79.742188 79.5 79.425781 C 80.226562 78.945312 80.90625 78.460938 80.546875 77.605469 C 80.269531 76.949219 79.648438 77.3125 79.121094 77.347656 Z M 79.121094 77.347656 "/>
<path style=" stroke:none;fill-rule:nonzero;fill:rgb(0%,0%,0%);fill-opacity:1;" d="M 10.203125 9.195312 C 9.5625 8.875 9.449219 9.695312 8.917969 9.683594 C 8.710938 9.140625 9.082031 8.882812 9.449219 8.683594 C 9.960938 8.402344 10.503906 8.460938 10.917969 8.851562 C 11.335938 9.242188 11.554688 9.742188 11.183594 10.375 C 10.683594 10.105469 10.652344 9.507812 10.203125 9.195312 Z M 10.203125 9.195312 "/>
</g>
</svg>
